<?xml version="1.0" encoding="UTF-8" standalone="no"?>
<!-- Created with Inkscape (http://www.inkscape.org/) -->

<svg
   xmlns:dc="http://purl.org/dc/elements/1.1/"
   xmlns:cc="http://creativecommons.org/ns#"
   xmlns:rdf="http://www.w3.org/1999/02/22-rdf-syntax-ns#"
   xmlns:svg="http://www.w3.org/2000/svg"
   xmlns="http://www.w3.org/2000/svg"
   xmlns:sodipodi="http://sodipodi.sourceforge.net/DTD/sodipodi-0.dtd"
   xmlns:inkscape="http://www.inkscape.org/namespaces/inkscape"
   width="83.694077mm"
   height="72.192711mm"
   viewBox="0 0 83.694077 72.192711"
   version="1.1"
   id="svg8"
   inkscape:version="0.92.4 (unknown)"
   sodipodi:docname="bestgroup.svg">
  <defs
     id="defs2" />
  <sodipodi:namedview
     id="base"
     pagecolor="#ffffff"
     bordercolor="#666666"
     borderopacity="1.0"
     inkscape:pageopacity="0.0"
     inkscape:pageshadow="2"
     inkscape:zoom="0.98994949"
     inkscape:cx="149.48339"
     inkscape:cy="-11.377123"
     inkscape:document-units="mm"
     inkscape:current-layer="layer1"
     showgrid="false"
     fit-margin-top="0"
     fit-margin-left="0"
     fit-margin-right="0"
     fit-margin-bottom="0"
     inkscape:window-width="1440"
     inkscape:window-height="836"
     inkscape:window-x="0"
     inkscape:window-y="27"
     inkscape:window-maximized="1" />
  <metadata
     id="metadata5">
    <rdf:RDF>
      <cc:Work
         rdf:about="">
        <dc:format>image/svg+xml</dc:format>
        <dc:type
           rdf:resource="http://purl.org/dc/dcmitype/StillImage" />
        <dc:title></dc:title>
      </cc:Work>
    </rdf:RDF>
  </metadata>
  <g
     inkscape:label="Layer 1"
     inkscape:groupmode="layer"
     id="layer1"
     transform="translate(-15.048222,-57.944495)">
    <g
       id="g916">
      <g
         transform="translate(1.2831079)"
         id="g864">
        <g
           aria-label="Best"
           transform="matrix(1.0092503,-0.2134627,0.21343762,1.0093689,-51.239509,-24.46939)"
           style="font-style:normal;font-variant:normal;font-weight:normal;font-stretch:normal;font-size:39.444561px;line-height:1.25;font-family:'The Wave';-inkscape-font-specification:'The Wave';letter-spacing:0px;word-spacing:0px;fill:#fff7f7;fill-opacity:1;stroke:#212121;stroke-width:0.7415427;stroke-miterlimit:4;stroke-dasharray:none;stroke-opacity:1"
           id="text12">
          <path
             d="m 52.134106,145.27896 q -2.721675,0 -4.575569,-0.90723 -1.853894,-0.90722 -2.997787,-2.13 -1.143892,-1.26223 -1.656671,-2.32723 -0.473335,-1.02556 -0.473335,-1.38056 0,-0.31556 0.236667,-0.47334 0.236668,-0.19722 0.552224,-0.19722 0.276112,0 0.710002,0.43389 0.473335,0.43389 1.104448,1.10445 0.670558,0.63111 1.498893,1.34111 0.867781,0.74945 1.932784,1.34112 1.104448,0.59167 2.406118,0.59167 3.589455,0 6.192796,-1.30167 2.603341,-1.30168 4.260013,-3.15557 1.775005,-1.97223 2.524452,-3.90501 0.788891,-1.97223 0.788891,-3.2739 0,-1.30167 -0.512779,-1.97223 -0.552224,-0.71 -2.563897,-0.71 -1.025558,0 -2.130006,0.23667 -1.065003,0.19722 -2.130006,0.55222 -1.065004,0.355 -2.051118,0.86778 -0.986114,0.47334 -1.775005,1.02556 -0.118334,1.42 -0.118334,2.80056 0,1.34112 0.03945,2.2089 0.07889,0.82834 0.157778,1.49889 0.07889,0.63112 0.197223,1.26223 0.157778,0.63111 0.315557,1.49889 0,0.31556 -0.197223,0.51278 -0.197223,0.19722 -0.51278,0.19722 -0.631113,0 -1.104447,-0.47333 -0.43389,-0.47334 -0.749447,-1.26223 -0.276112,-0.82833 -0.43389,-1.89334 -0.157778,-1.10444 -0.197223,-2.36667 l -0.03944,-3.58945 q -0.788892,-0.59167 -0.788892,-1.42001 0,-0.39444 0.197223,-0.55222 0.197223,-0.15778 0.710002,-0.47334 0.157778,-2.36667 0.473335,-4.77279 0.591668,-5.20668 0.591668,-8.16502 l -0.03944,-1.06501 q 0,-0.59166 0.670557,-0.59166 0.591669,0 0.94667,0.27611 0.394445,0.23666 0.591668,0.67055 0.197223,0.39445 0.276112,0.94667 0.07889,0.51278 0.07889,1.06501 0,1.02556 -0.07889,2.05111 -0.03944,0.98612 -0.118334,2.13001 -0.07889,1.14389 -0.236667,2.48501 -0.118334,1.30167 -0.276112,2.9189 1.025559,-0.7889 2.24834,-1.8539 1.222782,-1.10445 2.24834,-2.36667 1.065003,-1.30167 1.775005,-2.72168 0.710002,-1.42 0.710002,-2.91889 0,-0.98612 -0.394445,-1.69612 -0.394446,-0.71 -1.065003,-1.14389 -0.670558,-0.47334 -1.538338,-0.67056 -0.867781,-0.19722 -1.81445,-0.19722 -1.617227,0 -3.037231,0.51278 -1.420004,0.51278 -2.642786,1.34111 -1.183337,0.82834 -2.208895,1.89334 -0.986114,1.02556 -1.775005,2.09056 -0.749447,1.065 -1.301671,2.09056 -0.552224,0.98612 -0.86778,1.69612 l -0.473335,1.10445 v 0.0789 q 0,0.71 -0.670558,0.71 -0.512779,0 -1.143892,-0.51278 -0.710002,-0.51278 -0.710002,-1.69612 0,-0.98611 0.552224,-2.24834 0.591668,-1.26222 1.577782,-2.56389 1.025559,-1.30167 2.366674,-2.5639 1.38056,-1.30167 2.918898,-2.28778 1.538337,-0.98612 3.195009,-1.57779 1.696116,-0.63111 3.313343,-0.63111 3.19501,0 5.719461,2.16945 2.563897,2.2089 2.563897,5.32502 0,3.43167 -3.589455,7.49446 l 0.552224,-0.0394 q 1.696116,0 2.958342,0.55222 1.30167,0.51278 2.169451,1.42001 0.86778,0.86778 1.30167,2.05111 0.43389,1.18334 0.43389,2.44557 0,2.20889 -1.183337,4.53612 -1.143892,2.32723 -3.155564,4.22057 -2.011673,1.89334 -4.772792,3.07668 -2.76112,1.22278 -5.956129,1.22278 z"
             style="font-style:normal;font-variant:normal;font-weight:normal;font-stretch:normal;font-family:'The Wave';-inkscape-font-specification:'The Wave';fill:#fff7f7;fill-opacity:1;stroke:#212121;stroke-width:0.7415427;stroke-miterlimit:4;stroke-dasharray:none;stroke-opacity:1"
             id="path22"
             inkscape:connector-curvature="0" />
          <path
             d="m 76.498518,135.89115 q -1.104448,0 -2.051117,-0.31556 -0.94667,-0.31555 -1.735561,-0.82833 -0.788891,-0.55223 -1.38056,-1.22278 -0.552223,-0.71 -0.907224,-1.45945 l -0.591669,0.15778 q -0.591668,0 -1.222781,-0.59167 -0.631113,-0.63111 -0.631113,-1.38056 0,-0.355 0.197223,-0.47334 0.197222,-0.15777 0.86778,-0.355 l 0.986114,-0.355 q 0.670557,-3.70779 3.707789,-6.50835 2.997786,-2.84001 5.482794,-2.84001 0.710002,0 1.30167,0.31556 0.631113,0.27611 1.104448,0.78889 0.473335,0.51278 0.749447,1.14389 0.276111,0.63111 0.276111,1.26223 0,1.14389 -0.788891,2.24834 -0.749446,1.065 -2.090562,2.13 -1.341115,1.02556 -3.195009,1.97223 -1.853894,0.90723 -4.023345,1.73556 0.07889,1.97223 2.721675,1.97223 1.696116,0 3.076675,-0.90722 1.38056,-0.94667 2.169451,-1.73557 0.788891,-0.82833 1.143892,-0.82833 0.276112,0 0.591669,0.19722 0.355001,0.15778 0.631113,0.43389 0.276112,0.23667 0.473335,0.59167 0.197222,0.355 0.197222,0.71 0,0.23667 -0.591668,0.90723 -0.591668,0.67055 -1.577783,1.42 -0.986114,0.71 -2.287784,1.26223 -1.262226,0.55222 -2.603341,0.55222 z m -2.879453,-8.28336 q 3.471121,-1.65667 4.970015,-3.03723 1.498893,-1.38056 1.498893,-2.20889 v -0.0395 q -2.130006,0.55223 -3.786678,2.05112 -1.656671,1.49889 -2.68223,3.23445 z"
             style="font-style:normal;font-variant:normal;font-weight:normal;font-stretch:normal;font-family:'The Wave';-inkscape-font-specification:'The Wave';fill:#fff7f7;fill-opacity:1;stroke:#212121;stroke-width:0.7415427;stroke-miterlimit:4;stroke-dasharray:none;stroke-opacity:1"
             id="path24"
             inkscape:connector-curvature="0" />
          <path
             d="m 87.359945,147.25118 q -0.749447,0 -1.341115,-0.67055 -0.552224,-0.63112 -0.552224,-1.22278 0,-0.43389 0.552224,-0.63112 0.591668,-0.15778 1.538338,-0.82833 0.631113,-0.43389 1.065003,-1.26223 0.43389,-0.82833 0.43389,-2.24834 0,-1.53834 -0.552224,-2.87945 -0.512779,-1.38056 -1.143892,-2.80057 -0.591668,-1.45944 -1.143892,-3.11612 -0.512779,-1.69611 -0.512779,-3.86556 0,-1.57779 0.355001,-3.19501 0.355001,-1.65667 1.065003,-3.19501 0.710002,-1.57778 1.775005,-2.95834 1.065003,-1.38056 2.524452,-2.52446 0.197223,-0.15777 0.512779,-0.15777 0.276112,0 0.591669,0.15777 0.315556,0.15778 0.591668,0.43389 0.276112,0.27612 0.43389,0.63112 0.197223,0.31555 0.197223,0.67055 0,0.39445 -0.157778,0.51278 -2.287785,1.73556 -3.826123,4.49668 -1.538338,2.76112 -1.538338,6.39002 0,2.13001 0.51278,3.6289 0.552224,1.4989 1.222781,2.87946 0.670558,1.34111 1.143892,2.76111 0.51278,1.38056 0.51278,3.2739 0,2.5639 -1.420005,4.14168 -1.459448,1.57778 -2.840008,1.57778 z"
             style="font-style:normal;font-variant:normal;font-weight:normal;font-stretch:normal;font-family:'The Wave';-inkscape-font-specification:'The Wave';fill:#fff7f7;fill-opacity:1;stroke:#212121;stroke-width:0.7415427;stroke-miterlimit:4;stroke-dasharray:none;stroke-opacity:1"
             id="path26"
             inkscape:connector-curvature="0" />
          <path
             d="m 100.5406,145.59451 q -0.670562,0 -1.222786,-0.59167 -0.512779,-0.55222 -0.94667,-1.53833 -0.43389,-0.94667 -0.749446,-2.24834 -0.315557,-1.26223 -0.51278,-2.68223 -0.197222,-1.42001 -0.315556,-2.60334 -0.118334,-1.22279 -0.118334,-2.24834 0,-1.81445 0.197223,-3.86557 0.197223,-2.05112 0.591668,-4.53613 0.433891,-2.485 1.104448,-5.52223 0.670558,-3.03724 1.577783,-6.82391 l -8.480581,0.0789 q -0.07889,-0.11834 -0.118334,-0.27612 -0.07889,-0.31555 -0.07889,-0.67055 0,-0.27612 0.07889,-0.55223 0.118334,-0.31555 0.394446,-0.55222 0.276112,-0.27611 0.788891,-0.43389 0.512779,-0.15778 1.301671,-0.15778 1.696116,0 3.352787,0 1.696116,-0.0394 3.39223,-0.0789 0.47334,-2.05112 0.71,-3.31334 0.27612,-1.26223 0.43389,-1.93279 0.15778,-0.67055 0.23667,-0.90722 0.11834,-0.27611 0.27611,-0.31556 l 0.31556,-0.0394 q 0.55222,0 1.18334,0.55222 0.67055,0.51278 0.67055,1.34112 0,0.43389 -0.94666,4.49668 l 8.91447,0.0394 q 0.31555,0 0.63111,0.19722 0.31556,0.15778 0.55222,0.47334 0.27612,0.27611 0.43389,0.63111 0.15778,0.31556 0.15778,0.59167 0,0.31556 -0.15778,0.47334 -0.11833,0.15777 -0.55222,0.23666 -0.31556,0.0789 -0.98611,0.11834 -0.63112,0 -1.53834,0 -1.61723,0 -3.55001,-0.0395 -1.93279,-0.0394 -3.43168,-0.0394 h -1.10445 q -1.02556,4.22057 -1.73556,7.41557 -0.71,3.15557 -1.18333,5.71947 -0.433895,2.56389 -0.670563,4.73334 -0.197222,2.13001 -0.197222,4.29946 0,2.9189 0.473334,5.08835 0.512781,2.20889 1.025561,3.47112 l 0.47333,1.26223 q 0,0.63111 -0.67055,0.74944 z"
             style="font-style:normal;font-variant:normal;font-weight:normal;font-stretch:normal;font-family:'The Wave';-inkscape-font-specification:'The Wave';fill:#fff7f7;fill-opacity:1;stroke:#212121;stroke-width:0.7415427;stroke-miterlimit:4;stroke-dasharray:none;stroke-opacity:1"
             id="path28"
             inkscape:connector-curvature="0" />
        </g>
        <g
           aria-label="Group"
           transform="matrix(0.38147909,-0.22024706,0.22024706,0.38147909,-173.05669,17.854214)"
           style="font-style:normal;font-variant:normal;font-weight:normal;font-stretch:normal;font-size:40px;line-height:1.25;font-family:'The Wave';-inkscape-font-specification:'The Wave';letter-spacing:0px;word-spacing:0px;fill:#d40000;fill-opacity:1;stroke:none;stroke-width:0.60065126"
           id="flowRoot14">
          <path
             d="m 377.82258,458.20616 q -0.68,0 -1.2,-0.52 -0.52,-0.52 -0.64,-1.12 -0.24,-1.48 -0.4,-2.96 -0.12,-1.44 -0.12,-2.92 l 0.04,-1.32 q -1.16,2.36 -2.24,3.96 -1.08,1.64 -2.16,2.64 -1.08,1 -2.28,1.44 -1.16,0.48 -2.52,0.48 -2.28,0 -4,-1 -1.68,-1 -2.84,-2.72 -1.16,-1.68 -1.76,-3.88 -0.56,-2.24 -0.56,-4.72 0,-2.28 0.44,-4.84 0.44,-2.56 1.28,-5.04 0.84,-2.52 2.04,-4.8 1.24,-2.28 2.8,-4 1.56,-1.76 3.44,-2.76 1.88,-1.04 4.04,-1.04 1.76,0 3.28,0.68 1.52,0.68 2.6,1.8 1.12,1.08 1.76,2.48 0.64,1.36 0.64,2.72 0,0.48 -0.12,0.8 -0.12,0.32 -0.6,0.32 -0.72,0 -1.32,-0.6 -0.56,-0.64 -0.56,-1.28 0,-2.32 -1.24,-3.28 -1.24,-1 -3.04,-1 -1.96,0 -3.68,1 -1.72,0.96 -3.16,2.64 -1.4,1.64 -2.52,3.8 -1.12,2.12 -1.92,4.48 -0.76,2.32 -1.16,4.68 -0.4,2.36 -0.4,4.44 0,1.68 0.2,3.24 0.2,1.52 0.76,2.68 0.6,1.16 1.64,1.84 1.08,0.72 2.8,0.72 2.36,0 4.08,-1.72 1.76,-1.76 3.12,-4.36 1.36,-2.6 2.52,-5.24 l 1.2,-2.64 q -1.8,0.32 -3.28,0.68 -1.48,0.32 -3.16,0.68 -0.64,0 -1.28,-0.6 -0.6,-0.64 -0.6,-1.4 0,-0.88 9.8,-2.52 0.24,-0.48 0.68,-0.48 0.4,0 0.8,0.28 2.28,-0.36 3.56,-0.52 1.28,-0.16 1.64,-0.16 0.32,0 0.64,0.2 0.32,0.2 0.56,0.48 0.28,0.28 0.44,0.64 0.16,0.36 0.16,0.64 0,0.28 -0.16,0.44 -0.16,0.2 -1.52,0.36 -1.36,0.12 -4.48,0.6 -1.8,5.6 -1.8,11.32 0,1.04 0,1.72 0.04,0.72 0.08,1.28 0.08,0.6 0.16,1.16 0.08,0.6 0.2,1.4 0,0.72 -0.68,0.72 z"
             style="fill:#d40000;stroke-width:0.60065126"
             id="path836"
             inkscape:connector-curvature="0" />
          <path
             d="m 387.67883,456.72616 q -0.64,0 -1.16,-0.52 -0.52,-0.52 -0.64,-1.12 -1.08,-3.6 -1.08,-7.16 0,-2.12 0.32,-3.88 0.36,-1.8 0.76,-3.4 0.44,-1.6 0.76,-3.04 0.36,-1.44 0.36,-2.92 0,-0.44 -0.04,-0.64 0,-0.2 -0.04,-0.44 0,-0.56 0.68,-0.56 0.8,0 1.36,0.68 0.6,0.64 0.6,2.24 0,1.92 -0.56,4.04 -0.56,2.12 -1.2,4.8 l -0.12,0.88 q 0.44,-1.2 1.16,-2.68 0.76,-1.52 1.6,-3.08 0.88,-1.6 1.76,-3.08 0.92,-1.52 1.68,-2.68 0.8,-1.16 1.4,-1.88 0.6,-0.72 0.84,-0.72 0.68,0 1.24,0.72 0.56,0.68 0.56,1.36 -0.08,0.24 -0.24,0.76 -0.16,0.48 -0.32,1.16 -0.12,0.68 -0.24,1.48 -0.08,0.76 -0.08,1.48 0,1.24 0.24,1.92 0.28,0.68 0.6,1.12 0.36,0.4 0.6,0.72 0.28,0.32 0.28,0.84 0,0.28 -0.2,0.48 -0.2,0.2 -0.52,0.2 -0.48,0 -1.04,-0.4 -0.52,-0.44 -1,-1.12 -0.44,-0.72 -0.84,-1.56 -0.36,-0.88 -0.56,-1.76 -4.32,7.2 -5.28,11.2 -0.44,1.8 -0.68,3.04 -0.24,1.24 -0.24,1.96 l 0.04,0.32 -0.04,0.68 q -0.12,0.56 -0.72,0.56 z"
             style="fill:#d40000;stroke-width:0.60065126"
             id="path838"
             inkscape:connector-curvature="0" />
          <path
             d="m 405.67695,452.24616 q -1.08,0 -2.12,-0.44 -1.04,-0.44 -1.88,-1.32 -0.8,-0.92 -1.32,-2.28 -0.48,-1.4 -0.48,-3.32 0,-3.32 1.2,-6.04 0.6,-1.4 1.28,-2.52 0.68,-1.12 1.32,-1.88 0.68,-0.8 1.24,-1.2 0.56,-0.4 0.96,-0.4 0.44,0 0.88,0.36 l 0.6,-0.08 q 0.76,0 1.68,0.4 0.92,0.36 1.72,1.28 0.8,0.88 1.32,2.36 0.52,1.48 0.52,3.68 0,1.68 -0.4,3.68 -0.4,1.96 -1.24,3.68 -0.84,1.72 -2.16,2.88 -1.28,1.16 -3.12,1.16 z m -1.16,-2.6 q 1.24,0 2.24,-0.96 1.04,-0.96 1.76,-2.4 0.72,-1.48 1.08,-3.24 0.4,-1.76 0.4,-3.4 0,-0.48 -0.04,-1.16 0,-0.68 -0.16,-1.28 -0.12,-0.6 -0.44,-1 -0.28,-0.44 -0.8,-0.44 -0.72,0 -1.36,0.6 -0.6,0.6 -0.6,1.68 0,0.92 0.4,1.68 0.4,0.76 0.84,1.44 0.76,0.92 0.76,1.56 0,0.72 -0.72,0.72 -0.56,0 -1.12,-0.52 -0.52,-0.52 -1,-1.24 -0.44,-0.72 -0.84,-1.48 -0.36,-0.8 -0.52,-1.36 -1.92,3.6 -1.92,7.32 0,1.44 0.36,2.44 0.36,1.04 1.68,1.04 z"
             style="fill:#d40000;stroke-width:0.60065126"
             id="path840"
             inkscape:connector-curvature="0" />
          <path
             d="m 425.77383,451.96616 q -1.24,0 -2.04,-1.88 -0.72,-1.92 -0.72,-3.96 0,-0.44 0,-0.84 0,-0.44 0.08,-0.88 -1.16,1.92 -1.96,3.12 -0.76,1.2 -1.36,1.88 -0.56,0.64 -1.04,0.88 -0.44,0.24 -0.96,0.24 -1.24,0 -2.44,-1.2 -1.16,-1.16 -1.16,-3.52 0,-0.76 0.16,-1.92 0.2,-1.16 0.48,-2.44 0.28,-1.28 0.64,-2.56 0.4,-1.28 0.76,-2.32 0.4,-1.04 0.76,-1.68 0.4,-0.64 0.68,-0.64 0.72,0 1.32,0.68 0.64,0.64 0.64,1.24 -0.32,0.8 -0.64,1.56 -0.28,0.76 -0.6,1.68 -0.28,0.88 -0.6,1.96 -0.28,1.04 -0.56,2.4 -0.44,1.96 -0.44,3.32 0,0.72 0.08,0.72 0.32,0 1.12,-1.08 0.8,-1.12 1.8,-2.8 1.04,-1.68 2.16,-3.6 1.12,-1.92 2.08,-3.6 1,-1.68 1.72,-2.76 0.72,-1.12 0.96,-1.12 0.32,0 0.64,0.2 0.32,0.2 0.6,0.52 0.28,0.28 0.44,0.64 0.16,0.36 0.16,0.68 0,0.12 -0.12,0.6 -0.12,0.48 -0.44,1.32 -2.4,7.32 -2.4,10.6 0,0.92 0.12,1.52 0.16,0.6 0.32,1.04 0.16,0.4 0.28,0.68 0.16,0.28 0.16,0.6 0,0.68 -0.68,0.72 z"
             style="fill:#d40000;stroke-width:0.60065126"
             id="path842"
             inkscape:connector-curvature="0" />
          <path
             d="m 432.46883,468.12616 q -0.8,0 -1.52,-0.96 -0.68,-0.92 -1.24,-2.36 -0.52,-1.44 -0.84,-3.16 -0.32,-1.68 -0.32,-3.16 0,-1.72 0.24,-3.4 0.24,-1.68 0.64,-3.48 0.4,-1.84 0.88,-3.88 0.52,-2.04 1.04,-4.48 0.6,-2.76 0.6,-5.48 0,-0.8 -0.04,-1.16 0,-0.4 -0.04,-0.64 -0.04,-0.44 -0.16,-0.96 -0.08,-0.56 -0.24,-1.24 l -0.04,-0.28 q 0,-0.6 0.72,-0.68 0.64,0 1.04,0.4 0.4,0.36 0.64,0.92 0.24,0.56 0.36,1.24 0.12,0.68 0.2,1.28 2.16,-4 5.08,-4 1.08,0 2.12,0.48 1.04,0.44 1.84,1.4 0.84,0.96 1.36,2.44 0.52,1.44 0.52,3.48 0,1.44 -0.32,3.16 -0.28,1.68 -0.84,3.4 -0.56,1.72 -1.36,3.36 -0.76,1.6 -1.72,2.84 -0.96,1.24 -2.12,1.96 -1.12,0.76 -2.36,0.76 -1.52,0 -2.68,-0.96 -1.16,-0.96 -1.84,-2.2 -0.92,4.12 -0.92,7.08 0,2.28 0.48,3.96 0.52,1.72 1.04,2.68 l 0.52,0.96 q 0,0.68 -0.72,0.68 z m 2.68,-14.84 q 1.08,0 2.08,-0.72 1,-0.68 1.84,-1.84 0.84,-1.16 1.52,-2.64 0.68,-1.52 1.16,-3.08 0.48,-1.56 0.72,-3.08 0.28,-1.52 0.28,-2.76 0,-1.56 -0.36,-2.72 -0.32,-1.16 -1.76,-1.16 -2.36,0 -4.52,4.76 -0.8,1.72 -1.44,3.56 -0.64,1.8 -1.12,3.72 -0.16,0.52 -0.16,1.36 0,0.76 0.12,1.56 0.12,0.8 0.32,1.48 0.24,0.68 0.56,1.12 0.32,0.44 0.76,0.44 z"
             style="fill:#d40000;stroke-width:0.60065126"
             id="path844"
             inkscape:connector-curvature="0" />
        </g>
      </g>
      <g
         id="text851"
         style="font-style:normal;font-variant:normal;font-weight:normal;font-stretch:normal;font-size:14.25294495px;line-height:1.25;font-family:FZFangSong-Z02;-inkscape-font-specification:FZFangSong-Z02;letter-spacing:0px;word-spacing:0px;fill:#000000;fill-opacity:1;stroke:none;stroke-width:0.26458332"
         aria-label="INSTRUMENTOS">
        <path
           id="path866"
           style="font-style:normal;font-variant:normal;font-weight:normal;font-stretch:normal;font-family:FZFangSong-Z02;-inkscape-font-specification:FZFangSong-Z02;stroke-width:0.26458332"
           d="m 15.604978,129.96391 h -0.556756 v -10.57835 h 0.556756 z"
           inkscape:connector-curvature="0" />
        <path
           id="path868"
           style="font-style:normal;font-variant:normal;font-weight:normal;font-stretch:normal;font-family:FZFangSong-Z02;-inkscape-font-specification:FZFangSong-Z02;stroke-width:0.26458332"
           d="m 24.680095,119.38556 v 10.57835 h -0.890809 l -4.454045,-9.96592 v 9.96592 H 18.72281 v -10.57835 h 0.946484 l 4.454045,10.07727 v -10.07727 z"
           inkscape:connector-curvature="0" />
        <path
           id="path870"
           style="font-style:normal;font-variant:normal;font-weight:normal;font-stretch:normal;font-family:FZFangSong-Z02;-inkscape-font-specification:FZFangSong-Z02;stroke-width:0.26458332"
           d="m 31.750892,121.83528 -0.556756,0.2227 q -0.556755,-2.44972 -2.449725,-2.33837 -2.115671,0.11135 -2.227022,2.11567 -0.167027,1.61459 2.282698,2.33837 3.396209,0.94649 3.173507,3.17351 -0.05567,2.67243 -3.173507,2.7281 -2.561076,0.11136 -3.173507,-3.00648 l 0.556755,-0.16702 q 0.612431,2.83945 2.616752,2.7281 2.449725,-0.11135 2.561076,-2.33837 0.05567,-1.78162 -2.672427,-2.56108 -2.950805,-0.72378 -2.783779,-2.89513 0.167027,-2.56108 2.839454,-2.67243 2.39405,-0.11135 3.006481,2.67243 z"
           inkscape:connector-curvature="0" />
        <path
           id="path872"
           style="font-style:normal;font-variant:normal;font-weight:normal;font-stretch:normal;font-family:FZFangSong-Z02;-inkscape-font-specification:FZFangSong-Z02;stroke-width:0.26458332"
           d="m 39.489796,119.38556 v 0.55675 H 36.42764 v 10.0216 h -0.612432 v -10.0216 h -3.062156 v -0.55675 z"
           inkscape:connector-curvature="0" />
        <path
           id="path874"
           style="font-style:normal;font-variant:normal;font-weight:normal;font-stretch:normal;font-family:FZFangSong-Z02;-inkscape-font-specification:FZFangSong-Z02;stroke-width:0.26458332"
           d="m 41.215738,119.94231 v 4.5654 h 2.5054 q 2.115672,-0.11135 2.171347,-2.33838 -0.05568,-2.17134 -2.282698,-2.22702 z m 5.623232,10.0216 h -0.668107 l -2.895129,-4.84377 h -2.059996 v 4.84377 h -0.556756 v -10.57835 h 2.89513 q 2.839454,0.11135 2.950805,2.83945 -0.05568,2.5054 -2.561076,2.83945 z"
           inkscape:connector-curvature="0" />
        <path
           id="path876"
           style="font-style:normal;font-variant:normal;font-weight:normal;font-stretch:normal;font-family:FZFangSong-Z02;-inkscape-font-specification:FZFangSong-Z02;stroke-width:0.26458332"
           d="m 53.185986,126.17797 v -6.79241 h 0.556756 v 6.56971 q 0.05568,4.28702 -3.062156,4.17567 -3.117832,0.16703 -3.006481,-4.11999 v -6.62539 h 0.556756 v 6.84809 q 0,3.45189 2.505401,3.45189 2.449724,0 2.449724,-3.50757 z"
           inkscape:connector-curvature="0" />
        <path
           id="path878"
           style="font-style:normal;font-variant:normal;font-weight:normal;font-stretch:normal;font-family:FZFangSong-Z02;-inkscape-font-specification:FZFangSong-Z02;stroke-width:0.26458332"
           d="M 62.038401,129.96391 H 61.42597 v -10.0216 l -2.672427,10.0216 h -0.50108 l -2.561076,-10.0216 v 10.0216 h -0.612432 v -10.57835 h 1.002161 l 2.449725,9.46484 2.5054,-9.46484 h 1.00216 z"
           inkscape:connector-curvature="0" />
        <path
           id="path880"
           style="font-style:normal;font-variant:normal;font-weight:normal;font-stretch:normal;font-family:FZFangSong-Z02;-inkscape-font-specification:FZFangSong-Z02;stroke-width:0.26458332"
           d="m 64.488125,129.51851 h 4.955125 v 0.4454 h -5.511881 v -10.57835 h 5.40053 v 0.55675 h -4.843774 v 4.28702 h 4.454045 v 0.55676 h -4.454045 z"
           inkscape:connector-curvature="0" />
        <path
           id="path882"
           style="font-style:normal;font-variant:normal;font-weight:normal;font-stretch:normal;font-family:FZFangSong-Z02;-inkscape-font-specification:FZFangSong-Z02;stroke-width:0.26458332"
           d="m 76.681074,119.38556 v 10.57835 h -0.890809 l -4.454046,-9.96592 v 9.96592 h -0.612431 v -10.57835 h 0.946485 l 4.454045,10.07727 v -10.07727 z"
           inkscape:connector-curvature="0" />
        <path
           id="path884"
           style="font-style:normal;font-variant:normal;font-weight:normal;font-stretch:normal;font-family:FZFangSong-Z02;-inkscape-font-specification:FZFangSong-Z02;stroke-width:0.26458332"
           d="m 84.475649,119.38556 v 0.55675 h -3.062156 v 10.0216 h -0.612431 v -10.0216 h -3.062157 v -0.55675 z"
           inkscape:connector-curvature="0" />
        <path
           id="path886"
           style="font-style:normal;font-variant:normal;font-weight:normal;font-stretch:normal;font-family:FZFangSong-Z02;-inkscape-font-specification:FZFangSong-Z02;stroke-width:0.26458332"
           d="m 88.484297,119.83096 q -2.394049,0.11135 -2.449725,5.0108 0.111351,4.5654 2.449725,4.84378 2.338374,-0.11136 2.394049,-4.89945 -0.05567,-4.84378 -2.394049,-4.95513 z m 0,10.29998 q -3.006481,-0.16703 -3.062156,-5.28918 0.05568,-5.40053 3.062156,-5.56756 2.895129,0.22271 3.00648,5.51189 -0.05567,5.2335 -3.00648,5.34485 z"
           inkscape:connector-curvature="0" />
        <path
           id="path888"
           style="font-style:normal;font-variant:normal;font-weight:normal;font-stretch:normal;font-family:FZFangSong-Z02;-inkscape-font-specification:FZFangSong-Z02;stroke-width:0.26458332"
           d="m 98.505895,121.83528 -0.556756,0.2227 q -0.556755,-2.44972 -2.449725,-2.33837 -2.115671,0.11135 -2.227022,2.11567 -0.167027,1.61459 2.282698,2.33837 3.396209,0.94649 3.173507,3.17351 -0.05567,2.67243 -3.173507,2.7281 -2.561076,0.11136 -3.173507,-3.00648 l 0.556755,-0.16702 q 0.612431,2.83945 2.616752,2.7281 2.449725,-0.11135 2.561076,-2.33837 0.05567,-1.78162 -2.672427,-2.56108 -2.950805,-0.72378 -2.783779,-2.89513 0.167027,-2.56108 2.839454,-2.67243 2.39405,-0.11135 3.006481,2.67243 z"
           inkscape:connector-curvature="0" />
      </g>
    </g>
  </g>
</svg>
